<?xml version="1.0" encoding="UTF-8" standalone="no"?>
<svg width="21px" height="20px" viewBox="0 0 21 20" version="1.1" xmlns="http://www.w3.org/2000/svg" xmlns:xlink="http://www.w3.org/1999/xlink">
    <!-- Generator: Sketch 43.2 (39069) - http://www.bohemiancoding.com/sketch -->
    <title>Fill 34</title>
    <desc>Created with Sketch.</desc>
    <defs></defs>
    <g id="Page-1" stroke="none" stroke-width="1" fill="none" fill-rule="evenodd">
        <g id="Desktop-HD" transform="translate(-678.000000, -446.000000)" fill="#DFCDFF">
            <path d="M688.252609,446 C682.590893,446 678,450.590252 678,456.253891 C678,460.783264 680.937556,464.626311 685.012582,465.982303 C685.525245,466.076505 685.712367,465.759936 685.712367,465.488225 C685.712367,465.24471 685.703395,464.600037 685.698268,463.744531 C682.845942,464.364212 682.244205,462.369955 682.244205,462.369955 C681.778323,461.185704 681.106094,460.870417 681.106094,460.870417 C680.174971,460.234075 681.176585,460.246891 681.176585,460.246891 C682.205114,460.319305 682.746614,461.303617 682.746614,461.303617 C683.661717,462.870442 685.146515,462.418017 685.730951,462.155277 C685.823871,461.492661 686.089174,461.040877 686.382032,460.784546 C684.10517,460.525651 681.711677,459.646435 681.711677,455.717518 C681.711677,454.597991 682.110913,453.682889 682.767121,452.965802 C682.661384,452.706266 682.309569,451.66428 682.86709,450.252536 C682.86709,450.252536 683.728363,449.976979 685.686734,451.303494 C686.505071,451.076 687.381724,450.962573 688.253891,450.958087 C689.124776,450.962573 690.00207,451.076 690.821049,451.303494 C692.778138,449.976979 693.637488,450.252536 693.637488,450.252536 C694.196931,451.66428 693.845117,452.706266 693.73938,452.965802 C694.39687,453.682889 694.793542,454.597991 694.793542,455.717518 C694.793542,459.656048 692.396204,460.523088 690.112293,460.776856 C690.480128,461.093425 690.808232,461.718873 690.808232,462.67563 C690.808232,464.046361 690.795415,465.15179 690.795415,465.488225 C690.795415,465.762499 690.979974,466.081631 691.500326,465.981021 C695.571508,464.622466 698.5065,460.781983 698.5065,456.253891 C698.5065,450.590252 693.915608,446 688.252609,446" id="Fill-34"></path>
        </g>
    </g>
</svg>