<?xml version="1.0" encoding="UTF-8" standalone="no"?>
<svg width="25px" height="20px" viewBox="0 0 25 20" version="1.1" xmlns="http://www.w3.org/2000/svg" xmlns:xlink="http://www.w3.org/1999/xlink">
    <!-- Generator: Sketch 43.2 (39069) - http://www.bohemiancoding.com/sketch -->
    <title>final shape</title>
    <desc>Created with Sketch.</desc>
    <defs></defs>
    <g id="Page-1" stroke="none" stroke-width="1" fill="none" fill-rule="evenodd">
        <g id="Desktop-HD" transform="translate(-638.000000, -446.000000)" fill="#DFCDFF">
            <path d="M640.846855,458.16939 C641.139469,458.221681 641.440916,458.248989 641.748837,458.248989 C642.290968,458.248989 642.81303,458.164342 643.302148,458.007733 C640.90444,457.634551 639.071096,455.58941 639.071096,453.122433 C639.071096,453.084172 639.071537,453.046012 639.072415,453.007959 C639.782364,453.405108 640.600225,453.636705 641.471909,453.649464 C640.03183,452.77996 639.071096,451.215168 639.071096,449.429319 C639.071096,448.502109 639.330079,447.634488 639.780669,446.89283 C642.333844,449.901071 646.079588,451.893209 650.301821,452.163813 C650.224471,451.813988 650.183722,451.450697 650.183722,451.078031 C650.183722,448.273512 652.491538,446 655.338373,446 C656.82567,446 658.165846,446.620537 659.106678,447.613139 C660.274058,447.430452 661.359044,447.004091 662.306242,446.388626 C661.956835,447.563791 661.161664,448.551347 660.113307,449.161579 C661.139504,449.067562 662.109042,448.792984 663,448.380841 C662.361736,449.409882 661.50437,450.292658 660.4918,450.966221 C660.492615,451.003394 660.493025,451.040665 660.493025,451.078031 C660.493025,451.177114 660.490856,451.561204 660.490856,451.656212 C660.490856,459.578068 653.972026,466 645.93064,466 C643.005453,466 640.28174,465.150211 638,463.687558 C638.405563,463.73392 638.8181,463.757753 639.236287,463.757753 C641.658608,463.757753 643.891343,462.958108 645.67733,461.612159 C643.390666,461.61236 641.492658,460.166103 640.846855,458.16939 Z" id="final-shape"></path>
        </g>
    </g>
</svg>